<svg width="156" height="170" viewBox="0 0 156 170" fill="none" xmlns="http://www.w3.org/2000/svg">
<path d="M125.4 25.5965C137.6 37.0965 147.4 49.4965 152.1 63.5965C156.7 77.6965 156.3 93.4965 153.2 110.196C150.2 126.896 144.6 144.496 132.5 155.396C120.5 166.196 102 170.396 84.7003 168.696C67.4003 167.096 51.3003 159.696 38.0003 149.296C24.7003 138.796 14.2003 125.296 7.50027 109.396C0.800274 93.4965 -2.19972 75.1965 1.80028 58.0965C5.70028 40.8965 16.6003 24.6965 31.3003 13.9965C46.1003 3.29647 64.8003 -2.00352 81.6003 0.696476C98.3003 3.39648 113.1 13.9965 125.4 25.5965Z" fill="#FFCD64"/>
</svg>
